<svg xmlns="http://www.w3.org/2000/svg" viewBox="0 0 152 176" width="152" height="176" role="img">
  <defs>
    <linearGradient id="pk" x1="0" y1="0" x2=".3" y2="1"><stop offset="0" stop-color="#FFA8CE"/><stop offset="1" stop-color="#F9599C"/></linearGradient>
    <linearGradient id="vi" x1="0" y1="0" x2=".3" y2="1"><stop offset="0" stop-color="#C4B0FC"/><stop offset="1" stop-color="#A78BFA"/></linearGradient>
    <linearGradient id="ye" x1="0" y1="0" x2=".3" y2="1"><stop offset="0" stop-color="#FDE08A"/><stop offset="1" stop-color="#FBCE45"/></linearGradient>
    <linearGradient id="cr" x1="0" y1="0" x2="0" y2="1"><stop offset="0" stop-color="#FFFDF6"/><stop offset="1" stop-color="#F0E2C6"/></linearGradient>
  </defs>
  <g transform="rotate(-7 76 88)">
    <rect x="32" y="26" width="92" height="124" rx="14" fill="#7C4DE0"/>
    <rect x="30" y="24" width="92" height="120" rx="12" fill="url(#cr)"/>
    <g fill="#F0E2C6" opacity=".85">
      <rect x="113" y="42" width="3" height="86" rx="1.5"/>
      <rect x="118" y="48" width="3" height="74" rx="1.5"/>
    </g>
    <path d="M50 130h18v38l-9-10-9 10z" fill="#A78BFA"/>
    <rect x="22" y="20" width="90" height="122" rx="14" fill="url(#pk)"/>
    <path d="M22 34a14 14 0 0 1 14-14v122a14 14 0 0 1-14-14z" fill="#E84C8E"/>
    <rect x="34" y="20" width="3" height="122" fill="#fff" opacity=".28"/>
    <rect x="29" y="27" width="76" height="108" rx="10" fill="none" stroke="#fff" stroke-width="2.5" opacity=".22"/>
    <rect x="92" y="14" width="8" height="136" fill="#FBCE45"/>
    <rect x="92" y="14" width="8" height="8" fill="#E5A81F"/>
    <rect x="92" y="142" width="8" height="8" fill="#E5A81F"/>
  </g>
</svg>
